<?xml version="1.0" encoding="utf-8"?>
<!-- Generator: Adobe Illustrator 18.1.1, SVG Export Plug-In . SVG Version: 6.00 Build 0)  -->
<svg version="1.1" xmlns="http://www.w3.org/2000/svg" xmlns:xlink="http://www.w3.org/1999/xlink" x="0px" y="0px"
	 viewBox="0 0 1495 167" width="1495" height="167" enable-background="new 0 0 1495 167" xml:space="preserve">
<g id="Layer_2">
</g>
<g id="Layer_1">
	<path id="Cloud_5" fill="#FFFFFF" d="M898.6,28.6c-3.7-11.9-20.4-20.9-40.4-20.9c-9.9,0-19,2.2-26.1,5.8
		c-10.1-7.4-25.3-12.2-42.3-12.2c-26.8,0-49.2,11.8-54.1,27.3c-18.7,5-31.9,17.8-31.9,32.7c0,19.3,22.1,35,49.3,35
		c14.6,0,27.7-4.5,36.7-11.7c9,7.2,22.1,11.7,36.7,11.7c18.9,0,35.3-7.6,43.6-18.7c4.7,1.6,10,2.5,15.6,2.5
		c20.4,0,36.9-12,36.9-26.7C922.5,42.1,912.5,32.4,898.6,28.6z"/>
	<g id="XMLID_4_">
		<path id="Cloud_4" fill="#FFFFFF" d="M651.8,78.7c-2.9-9.2-16.1-16.2-32-16.2c-8,0-15.4,1.8-21,4.7c-3.8-5.3-12.3-8.9-22.2-8.9
			c-11.9,0-21.8,5.3-24,12.4c-8.3,2.3-14.2,8-14.2,14.8c0,8.7,9.8,15.8,21.8,15.8c3.1,0,6-0.5,8.7-1.3c1.3,10.6,13.8,18.9,29.1,18.9
			c8.7,0,16.4-2.7,21.8-6.9c5.3,4.2,13.1,6.9,21.8,6.9c16.1,0,29.2-9.3,29.2-20.7C670.8,89.2,662.9,81.6,651.8,78.7z"/>
	</g>
	<path id="Cloud_3" fill="#FFFFFF" d="M262.6,56.2c-2.9-9.6-16.5-16.8-32.7-16.8s-29.7,7.3-32.7,16.8c-11.3,3.1-19.3,11-19.3,20.2
		c0,11.9,13.3,21.6,29.8,21.6c8.8,0,16.7-2.8,22.2-7.2c5.5,4.4,13.4,7.2,22.2,7.2c16.4,0,29.8-9.7,29.8-21.6
		C281.9,67.2,273.8,59.3,262.6,56.2z"/>
	<path id="Cloud_2" fill="#FFFFFF" d="M175.8,30.7c-1.8-5.9-10.1-10.3-20-10.3c-9.9,0-18.2,4.4-20,10.3c-6.9,1.9-11.8,6.7-11.8,12.4
		c0,7.3,8.2,13.2,18.2,13.2c5.4,0,10.3-1.7,13.6-4.4c3.3,2.7,8.2,4.4,13.6,4.4c10.1,0,18.2-5.9,18.2-13.2
		C187.7,37.5,182.7,32.6,175.8,30.7z"/>
	<path id="Cloud_1" fill="#FFFFFF" d="M121.9,80.8c-3.9-12.6-22-22.1-43.7-22.1s-39.7,9.5-43.7,22.1c-15.1,4-25.8,14.3-25.8,26.5
		c0,15.6,17.8,28.3,39.8,28.3c11.8,0,22.4-3.6,29.7-9.4c7.3,5.8,17.9,9.4,29.7,9.4c22,0,39.8-12.7,39.8-28.3
		C147.7,95.1,136.9,84.8,121.9,80.8z"/>
	<path id="Cloud_3_1_" fill="#FFFFFF" d="M1118,88.6c-4.9-15.8-27.1-27.7-53.8-27.7s-48.9,11.9-53.8,27.7
		c-18.6,5.1-31.8,18-31.8,33.2c0,19.6,21.9,35.5,49,35.5c14.5,0,27.6-4.6,36.5-11.8c9,7.3,22,11.8,36.5,11.8c27.1,0,49-15.9,49-35.5
		C1149.8,106.7,1136.6,93.7,1118,88.6z"/>
</g>
</svg>
