<?xml version="1.0" encoding="utf-8"?>
<!-- Generator: Adobe Illustrator 18.1.1, SVG Export Plug-In . SVG Version: 6.00 Build 0)  -->
<svg version="1.1" id="Layer_1" xmlns="http://www.w3.org/2000/svg" xmlns:xlink="http://www.w3.org/1999/xlink" x="0px" y="0px"
	 viewBox="206.2 8.5 611.4 551.5" enable-background="new 206.2 8.5 611.4 551.5" xml:space="preserve">
<g id="XMLID_269_">
	<g id="XMLID_1847_">
		<path id="XMLID_1899_" fill="#FFFFFF" d="M594.1,80.2c-2-6.5-11.2-11.5-22.3-11.5s-20.2,4.9-22.3,11.5c-7.7,2-13.1,7.4-13.1,13.7
			c0,8.1,9,14.7,20.2,14.7c6,0,11.3-1.9,15.1-4.9c3.6,3.1,9.2,4.9,15.1,4.9c11.2,0,20.2-6.5,20.2-14.7
			C607.3,87.6,601.8,82.3,594.1,80.2z"/>
		<path id="XMLID_1898_" fill="#FFFFFF" d="M442.1,70.1c-1.2-3.9-6.8-7-13.7-7c-6.8,0-12.4,3.1-13.7,7c-4.7,1.3-8,4.5-8,8.4
			c0,4.9,5.5,9,12.4,9c3.6,0,7-1.2,9.3-3.1c2.3,1.9,5.5,3.1,9.3,3.1c6.8,0,12.4-4.1,12.4-9C450.1,74.7,446.8,71.4,442.1,70.1z"/>
		<path id="XMLID_1897_" fill="#FFFFFF" d="M405.5,104.1c-2.6-8.6-15-15-29.7-15s-27.1,6.5-29.8,15c-10.2,2.8-17.6,9.7-17.6,18
			c0,10.6,12.1,19.2,27.1,19.2c8,0,15.3-2.5,20.2-6.4c4.9,3.9,12.2,6.4,20.2,6.4c15,0,27.1-8.6,27.1-19.2
			C422.9,113.8,415.7,106.8,405.5,104.1z"/>
	</g>
</g>
</svg>
