<?xml version="1.0" encoding="utf-8"?>
<!-- Generator: Adobe Illustrator 18.1.1, SVG Export Plug-In . SVG Version: 6.00 Build 0)  -->
<svg version="1.1" id="Layer_1" xmlns="http://www.w3.org/2000/svg" xmlns:xlink="http://www.w3.org/1999/xlink" x="0px" y="0px"
	 viewBox="499.8 63.6 283 80" enable-background="new 499.8 63.6 283 80" xml:space="preserve">
<g id="XMLID_269_">
	<g id="XMLID_1847_">
		<path id="XMLID_1899_" fill="#FFFFFF" d="M769.7,81.3c-2-6.6-11.4-11.7-22.6-11.7s-20.5,5-22.6,11.7c-7.8,2-13.3,7.5-13.3,13.9
			c0,8.2,9.1,14.9,20.5,14.9c6.1,0,11.5-1.9,15.3-5c3.7,3.1,9.3,5,15.3,5c11.4,0,20.5-6.6,20.5-14.9
			C783.1,88.8,777.5,83.4,769.7,81.3z"/>
		<path id="XMLID_1898_" fill="#FFFFFF" d="M615.3,71c-1.2-4-6.9-7.1-13.9-7.1c-6.9,0-12.6,3.1-13.9,7.1c-4.8,1.3-8.1,4.6-8.1,8.5
			c0,5,5.6,9.1,12.6,9.1c3.7,0,7.1-1.2,9.4-3.1c2.3,1.9,5.6,3.1,9.4,3.1c6.9,0,12.6-4.2,12.6-9.1C623.4,75.7,620.1,72.4,615.3,71z"
			/>
		<path id="XMLID_1897_" fill="#FFFFFF" d="M578.2,105.6c-2.6-8.7-15.2-15.2-30.2-15.2s-27.5,6.6-30.3,15.2
			c-10.4,2.8-17.9,9.8-17.9,18.3c0,10.8,12.3,19.5,27.5,19.5c8.1,0,15.5-2.5,20.5-6.5c5,4,12.4,6.5,20.5,6.5
			c15.2,0,27.5-8.7,27.5-19.5C595.8,115.4,588.5,108.3,578.2,105.6z"/>
	</g>
</g>
</svg>
