<?xml version="1.0" encoding="utf-8"?>
<!-- Generator: Adobe Illustrator 18.1.1, SVG Export Plug-In . SVG Version: 6.00 Build 0)  -->
<svg version="1.1" id="Layer_1" xmlns="http://www.w3.org/2000/svg" xmlns:xlink="http://www.w3.org/1999/xlink" x="0px" y="0px"
	 viewBox="306.7 326.8 99.3 98.2" width="100" height="100" enable-background="new 306.7 326.8 99.3 98.2" xml:space="preserve">
<g id="Layer_2">
</g>
<g id="XMLID_269_">
	<g id="XMLID_1_">
		<g id="XMLID_49_">
			<g id="XMLID_322_">
				<path id="XMLID_407_" fill="#F5C738" d="M356.3,345.4c-17,0-30.8,13.6-30.8,30.5c0,16.9,13.7,30.5,30.8,30.5
					c17,0,30.8-13.4,30.8-30.3C387.1,359.2,373.3,345.4,356.3,345.4z"/>
				<g id="XMLID_323_">
					<path id="XMLID_406_" fill="#F5C738" d="M364.2,342.2l-8-15.3l-8,15.3c2.5-0.6,5.2-0.9,8-0.9
						C359,341.4,361.8,341.7,364.2,342.2z"/>
					<path id="XMLID_405_" fill="#F5C738" d="M348.3,409.7l8,15.3l8-15.3c-2.5,0.6-5.3,0.9-8,0.9
						C353.5,410.6,350.8,410.3,348.3,409.7z"/>
					<path id="XMLID_388_" fill="#F5C738" d="M321.3,376c0-2.6,0.3-5.3,0.9-8l-15.5,8l15.5,8C321.6,381.4,321.3,378.7,321.3,376z"/>
					<path id="XMLID_369_" fill="#F5C738" d="M391.4,376c0,2.8-0.3,5.3-0.9,8l15.5-8l-15.5-8C390.8,370.6,391.4,373.2,391.4,376z"/>
					<path id="XMLID_330_" fill="#F5C738" d="M332.6,351.5c1.9-1.9,4.2-3.6,6.4-5l-16.8-5.4l5.3,16.6
						C329,355.5,330.6,353.4,332.6,351.5z"/>
					<path id="XMLID_329_" fill="#F5C738" d="M387,394.2c-1.3,2.2-3.1,4.3-5,6.2s-4.2,3.6-6.4,5l16.7,5.3L387,394.2z"/>
					<path id="XMLID_328_" fill="#F5C738" d="M327.5,394.2l-5.3,16.6l16.7-5.3c-2.2-1.3-4.5-2.9-6.4-5
						C330.6,398.4,329,396.4,327.5,394.2z"/>
					<path id="XMLID_324_" fill="#F5C738" d="M387,357.7l5.3-16.6l-16.7,5.3c2.2,1.3,4.5,2.9,6.4,5S385.7,355.5,387,357.7z"/>
				</g>
			</g>
			<path id="XMLID_320_" fill="#F8B558" d="M356.3,345.4c-17,0-30.8,13.6-30.8,30.5c0,16.9,13.7,30.5,30.8,30.5"/>
			<g id="XMLID_50_">
				<g>
					<g>
						<defs>
							<path id="SVGID_1_" d="M356.7,345.9c-17,0-30.8,13.6-30.8,30.5c0,16.9,13.7,30.5,30.8,30.5"/>
						</defs>
						<clipPath id="SVGID_2_">
							<use xlink:href="#SVGID_1_"  overflow="visible"/>
						</clipPath>
						<g id="XMLID_168_" opacity="0.5" clip-path="url(#SVGID_2_)">
							<line id="XMLID_318_" fill="none" stroke="#F89A3B" stroke-miterlimit="10" x1="324.2" y1="335.9" x2="438" y2="335.9"/>
							<line id="XMLID_317_" fill="none" stroke="#F89A3B" stroke-miterlimit="10" x1="324.2" y1="338.8" x2="438" y2="338.8"/>
							<line id="XMLID_316_" fill="none" stroke="#F89A3B" stroke-miterlimit="10" x1="324.2" y1="340.2" x2="438" y2="340.2"/>
							<line id="XMLID_309_" fill="none" stroke="#F89A3B" stroke-miterlimit="10" x1="324.2" y1="343.3" x2="438" y2="343.3"/>
							<line id="XMLID_308_" fill="none" stroke="#F89A3B" stroke-miterlimit="10" x1="324.2" y1="344.7" x2="438" y2="344.7"/>
							<line id="XMLID_307_" fill="none" stroke="#F89A3B" stroke-miterlimit="10" x1="324.2" y1="349.2" x2="438" y2="349.2"/>
							<line id="XMLID_301_" fill="none" stroke="#F89A3B" stroke-miterlimit="10" x1="324.2" y1="350.6" x2="438" y2="350.6"/>
							<line id="XMLID_300_" fill="none" stroke="#F89A3B" stroke-miterlimit="10" x1="324.2" y1="353.5" x2="438" y2="353.5"/>
							<line id="XMLID_299_" fill="none" stroke="#F89A3B" stroke-miterlimit="10" x1="324.2" y1="356.5" x2="438" y2="356.5"/>
							<line id="XMLID_298_" fill="none" stroke="#F89A3B" stroke-miterlimit="10" x1="324.2" y1="358" x2="438" y2="358"/>
							<line id="XMLID_293_" fill="none" stroke="#F89A3B" stroke-miterlimit="10" x1="324.2" y1="361" x2="438" y2="361"/>
							<line id="XMLID_292_" fill="none" stroke="#F89A3B" stroke-miterlimit="10" x1="324.2" y1="363.9" x2="438" y2="363.9"/>
							<line id="XMLID_291_" fill="none" stroke="#F89A3B" stroke-miterlimit="10" x1="324.2" y1="365.4" x2="438" y2="365.4"/>
							<line id="XMLID_290_" fill="none" stroke="#F89A3B" stroke-miterlimit="10" x1="324.2" y1="368.4" x2="438" y2="368.4"/>
							<line id="XMLID_289_" fill="none" stroke="#F89A3B" stroke-miterlimit="10" x1="324.2" y1="371.3" x2="438" y2="371.3"/>
							<line id="XMLID_288_" fill="none" stroke="#F89A3B" stroke-miterlimit="10" x1="324.2" y1="372.7" x2="438" y2="372.7"/>
							<line id="XMLID_287_" fill="none" stroke="#F89A3B" stroke-miterlimit="10" x1="324.2" y1="375.7" x2="438" y2="375.7"/>
							<line id="XMLID_286_" fill="none" stroke="#F89A3B" stroke-miterlimit="10" x1="324.2" y1="377.2" x2="438" y2="377.2"/>
							<line id="XMLID_285_" fill="none" stroke="#F89A3B" stroke-miterlimit="10" x1="324.2" y1="380.1" x2="438" y2="380.1"/>
							<line id="XMLID_283_" fill="none" stroke="#F89A3B" stroke-miterlimit="10" x1="324.2" y1="383.1" x2="438" y2="383.1"/>
							<line id="XMLID_282_" fill="none" stroke="#F89A3B" stroke-miterlimit="10" x1="324.2" y1="386" x2="438" y2="386"/>
							<line id="XMLID_280_" fill="none" stroke="#F89A3B" stroke-miterlimit="10" x1="324.2" y1="389" x2="438" y2="389"/>
							<line id="XMLID_279_" fill="none" stroke="#F89A3B" stroke-miterlimit="10" x1="324.2" y1="391.9" x2="438" y2="391.9"/>
							<line id="XMLID_278_" fill="none" stroke="#F89A3B" stroke-miterlimit="10" x1="324.2" y1="393.4" x2="438" y2="393.4"/>
							<line id="XMLID_277_" fill="none" stroke="#F89A3B" stroke-miterlimit="10" x1="324.2" y1="396.4" x2="438" y2="396.4"/>
							<line id="XMLID_276_" fill="none" stroke="#F89A3B" stroke-miterlimit="10" x1="324.2" y1="399.3" x2="438" y2="399.3"/>
							<line id="XMLID_275_" fill="none" stroke="#F89A3B" stroke-miterlimit="10" x1="324.2" y1="400.9" x2="438" y2="400.9"/>
							<line id="XMLID_274_" fill="none" stroke="#F89A3B" stroke-miterlimit="10" x1="324.2" y1="403.8" x2="438" y2="403.8"/>
							<line id="XMLID_273_" fill="none" stroke="#F89A3B" stroke-miterlimit="10" x1="324.2" y1="406.7" x2="438" y2="406.7"/>
							<line id="XMLID_271_" fill="none" stroke="#F89A3B" stroke-miterlimit="10" x1="324.2" y1="408.2" x2="438" y2="408.2"/>
							<line id="XMLID_270_" fill="none" stroke="#F89A3B" stroke-miterlimit="10" x1="324.2" y1="411.2" x2="438" y2="411.2"/>
						</g>
					</g>
				</g>
			</g>
		</g>
	</g>
</g>
</svg>
