<?xml version="1.0" encoding="utf-8"?>
<!-- Generator: Adobe Illustrator 18.1.1, SVG Export Plug-In . SVG Version: 6.00 Build 0)  -->
<svg version="1.1" id="Layer_1" xmlns="http://www.w3.org/2000/svg" xmlns:xlink="http://www.w3.org/1999/xlink" x="0px" y="0px"
	 viewBox="0 0 67.8 92.7" enable-background="new 0 0 67.8 92.7" xml:space="preserve">
<rect id="XMLID_3186_" x="0.1" y="25.7" fill="#E66366" width="67.2" height="67"/>
<path id="XMLID_2359_" fill="#F6C838" d="M0,25.7L34.8,0l33,25.7C67.8,25.7,0.4,25.4,0,25.7z"/>
<path id="XMLID_2357_" fill="#3073B3" d="M55.2,50.4h-9.9c-1.7,0-3.1-1.4-3.1-3.1v-10c0-1.7,1.4-3.1,3.1-3.1h9.9
	c1.7,0,3.1,1.4,3.1,3.1v10C58.4,49,57,50.4,55.2,50.4z"/>
<g id="XMLID_8_">
	<defs>
		<rect id="XMLID_9_" x="0.7" y="25.2" width="34.3" height="67.5"/>
	</defs>
	<clipPath id="XMLID_2_">
		<use xlink:href="#XMLID_9_"  overflow="visible"/>
	</clipPath>
	<g id="XMLID_10_" clip-path="url(#XMLID_2_)">
		<rect id="XMLID_1244_" x="-17" y="90.7" fill="#B9276E" width="67" height="1"/>
		<rect id="XMLID_1243_" x="-17" y="88.7" fill="#B9276E" width="67" height="1"/>
		<rect id="XMLID_1242_" x="-17" y="86.7" fill="#B9276E" width="67" height="1"/>
		<rect id="XMLID_1241_" x="-17" y="84.7" fill="#B9276E" width="67" height="1"/>
		<rect id="XMLID_1240_" x="-17" y="82.7" fill="#B9276E" width="67" height="1"/>
		<rect id="XMLID_1239_" x="-17" y="80.7" fill="#B9276E" width="67" height="1"/>
		<rect id="XMLID_1238_" x="-17" y="78.7" fill="#B9276E" width="67" height="1"/>
		<rect id="XMLID_1237_" x="-17" y="76.7" fill="#B9276E" width="67" height="1"/>
		<rect id="XMLID_1236_" x="-17" y="74.7" fill="#B9276E" width="67" height="1"/>
		<rect id="XMLID_1235_" x="-17" y="72.7" fill="#B9276E" width="67" height="1"/>
		<rect id="XMLID_1234_" x="-17" y="70.7" fill="#B9276E" width="67" height="1"/>
		<rect id="XMLID_1233_" x="-17" y="68.7" fill="#B9276E" width="67" height="1"/>
		<rect id="XMLID_1232_" x="-17" y="66.7" fill="#B9276E" width="67" height="1"/>
		<rect id="XMLID_1231_" x="-17" y="64.7" fill="#B9276E" width="67" height="1"/>
		<rect id="XMLID_1230_" x="-17" y="62.7" fill="#B9276E" width="67" height="1"/>
		<rect id="XMLID_1229_" x="-17" y="60.7" fill="#B9276E" width="67" height="1"/>
		<rect id="XMLID_1228_" x="-17" y="58.7" fill="#B9276E" width="67" height="1"/>
		<rect id="XMLID_1227_" x="-17" y="56.7" fill="#B9276E" width="67" height="1"/>
		<rect id="XMLID_1226_" x="-17" y="54.7" fill="#B9276E" width="67" height="1"/>
		<rect id="XMLID_1225_" x="-17" y="52.7" fill="#B9276E" width="67" height="1"/>
		<rect id="XMLID_1224_" x="-17" y="50.7" fill="#B9276E" width="67" height="1"/>
		<rect id="XMLID_1223_" x="-17" y="48.7" fill="#B9276E" width="67" height="1"/>
		<rect id="XMLID_1222_" x="-17" y="46.7" fill="#B9276E" width="67" height="1"/>
		<rect id="XMLID_1221_" x="-17" y="44.7" fill="#B9276E" width="67" height="1"/>
		<rect id="XMLID_1220_" x="-17" y="42.7" fill="#B9276E" width="67" height="1"/>
		<rect id="XMLID_1219_" x="-17" y="40.7" fill="#B9276E" width="67" height="1"/>
		<rect id="XMLID_1218_" x="-17" y="38.7" fill="#B9276E" width="67" height="1"/>
		<rect id="XMLID_1217_" x="-17" y="36.7" fill="#B9276E" width="67" height="1"/>
		<rect id="XMLID_1216_" x="-17" y="34.7" fill="#B9276E" width="67" height="1"/>
		<rect id="XMLID_1215_" x="-17" y="32.7" fill="#B9276E" width="67" height="1"/>
		<rect id="XMLID_1214_" x="-17" y="30.7" fill="#B9276E" width="67" height="1"/>
		<rect id="XMLID_1213_" x="-17" y="28.7" fill="#B9276E" width="67" height="1"/>
		<rect id="XMLID_1212_" x="-17" y="26.7" fill="#B9276E" width="67" height="1"/>
		<rect id="XMLID_1211_" x="-17" y="24.7" fill="#B9276E" width="67" height="1"/>
		<rect id="XMLID_1210_" x="-17" y="22.7" fill="#B9276E" width="67" height="1"/>
		<rect id="XMLID_1209_" x="-17" y="20.7" fill="#B9276E" width="67" height="1"/>
		<rect id="XMLID_1208_" x="-17" y="18.7" fill="#B9276E" width="67" height="1"/>
		<rect id="XMLID_1207_" x="-17" y="16.7" fill="#B9276E" width="67" height="1"/>
		<rect id="XMLID_1206_" x="-17" y="14.7" fill="#B9276E" width="67" height="1"/>
		<rect id="XMLID_1205_" x="-17" y="12.7" fill="#B9276E" width="67" height="1"/>
		<rect id="XMLID_1204_" x="-17" y="10.7" fill="#B9276E" width="67" height="1"/>
		<rect id="XMLID_1203_" x="-17" y="8.7" fill="#B9276E" width="67" height="1"/>
		<rect id="XMLID_1202_" x="-17" y="6.7" fill="#B9276E" width="67" height="1"/>
		<rect id="XMLID_1201_" x="-17" y="4.7" fill="#B9276E" width="67" height="1"/>
		<rect id="XMLID_1200_" x="-17" y="2.7" fill="#B9276E" width="67" height="1"/>
		<rect id="XMLID_1199_" x="-17" y="0.7" fill="#B9276E" width="67" height="1"/>
		<rect id="XMLID_1198_" x="-17" y="-1.3" fill="#B9276E" width="67" height="1"/>
		<rect id="XMLID_1197_" x="-17" y="-3.3" fill="#B9276E" width="67" height="1"/>
		<rect id="XMLID_1196_" x="-17" y="-5.3" fill="#B9276E" width="67" height="1"/>
		<rect id="XMLID_1195_" x="-17" y="-7.3" fill="#B9276E" width="67" height="1"/>
		<rect id="XMLID_1194_" x="-17" y="-9.3" fill="#B9276E" width="67" height="1"/>
		<rect id="XMLID_1193_" x="-17" y="-11.3" fill="#B9276E" width="67" height="1"/>
		<rect id="XMLID_1192_" x="-17" y="-13.3" fill="#B9276E" width="67" height="1"/>
		<rect id="XMLID_1191_" x="-17" y="-15.3" fill="#B9276E" width="67" height="1"/>
		<rect id="XMLID_1190_" x="-17" y="-17.3" fill="#B9276E" width="67" height="1"/>
	</g>
</g>
<path id="XMLID_2356_" fill="#2A1F50" d="M21.5,50.4h-8.7c-2.1,0-3.7-1.7-3.7-3.7v-8.8c0-2.1,1.7-3.7,3.7-3.7h8.7
	c2.1,0,3.7,1.7,3.7,3.7v8.8C25.2,48.7,23.5,50.4,21.5,50.4z"/>
<g id="XMLID_2349_">
	<path id="XMLID_2355_" fill="#2A1F50" d="M36,89V62.4c0-1-0.6-1.8-1.6-1.8h-4.7c-1,0-1.7,0.8-1.7,1.8v28.8c0,0.1,0,0.1,0,0.2v1.2h8
		V89L36,89z"/>
	<path id="SVGID_x5F_1_x5F_" fill="none" d="M35,92.7h8V89l0,0V62.4c0-1-1.9-1.8-2.9-1.8H35"/>
	<text>	<textPath  xlink:href="#SVGID_x5F_1_x5F_" startOffset="70.8333%">
	</textPath>
</text>
</g>
</svg>
