<?xml version="1.0" encoding="utf-8"?>
<!-- Generator: Adobe Illustrator 18.1.1, SVG Export Plug-In . SVG Version: 6.00 Build 0)  -->
<svg version="1.1" id="Layer_1" xmlns="http://www.w3.org/2000/svg" xmlns:xlink="http://www.w3.org/1999/xlink" x="0px" y="0px"
	 viewBox="-392.4 538.2 959.4 131.6" enable-background="new -392.4 538.2 959.4 131.6" xml:space="preserve">
<g id="Layer_2">
</g>
<g id="Layer_1_1_">
	<g id="XMLID_4606_">
		<g id="XMLID_4609_">
			<polygon id="XMLID_4629_" fill="#FFFFFF" points="-354.2,667.5 -392.4,559.3 -372.5,559.3 -342.5,643.7 -310.3,559.3 
				-293.1,559.3 -334.2,667.5 			"/>
			<path id="XMLID_4626_" fill="#FFFFFF" d="M-198.2,610.4c0-14.4-2.2-26.1-7.8-35c-7.2-12.2-19.4-18.3-36.6-18.3
				c-15,0-27.2,5-36.1,15c-8.9,10-13.3,23.3-13.3,40c0,17.8,5,31.6,15,42.2c10,10.5,23.3,15.5,40.5,15.5c11.1,0,23.9-2.2,37.2-6.1
				v-15.5c-12.2,4.4-23.3,6.7-33.3,6.7c-17.8,0-29.4-6.7-35-20.5c-1.7-3.9-3.3-10-3.9-17.8h72.7L-198.2,610.4z M-270.9,602
				c1.1-10.5,3.9-18.3,8.3-22.8c4.4-5,11.1-7.2,18.9-7.2c11.7,0,19.4,5,22.8,15.5c1.1,3.3,1.7,8.3,2.2,15L-270.9,602L-270.9,602z"/>
			<path id="XMLID_4625_" fill="#FFFFFF" d="M-181.6,667.5V559.3h20v20.5c2.8-6.7,6.1-12.2,9.4-15.5c5-5,10.5-7.2,16.6-7.2
				c1.1,0,3.3,0,5.5,0.6V576c-3.3-1.1-6.1-1.7-8.3-1.7c-7.2,0-15,7.2-23.3,22.2v71.6L-181.6,667.5z"/>
			<path id="XMLID_4624_" fill="#FFFFFF" d="M-113.3,667.5V559.3h20v20.5c6.1-8.9,10.5-14.4,14.4-17.8c4.4-3.3,10-5,17.2-5
				c8.9,0,15.5,2.8,21.1,8.3c3.3,3.3,6.1,8.3,8.3,14.4c6.1-8.9,10.5-14.4,14.4-17.8c4.4-3.3,10-5,17.2-5c19.4,0,29.4,10.5,29.4,31.6
				v78.8h-20V592c0-12.2-5-18.9-14.4-18.9c-8.3,0-17.2,7.2-26.6,21.6v72.7h-20V592c0-12.2-5-18.9-14.4-18.9
				c-8.3,0-17.2,7.2-26.6,21.6v72.7C-93.3,667.5-113.3,667.5-113.3,667.5z"/>
			<path id="XMLID_4623_" fill="#FFFFFF" d="M156.9,667.5V559.3h20v20.5c5-6.7,9.4-11.7,14.4-15c6.7-5,14.4-7.2,22.8-7.2
				c18.3,0,27.7,11.1,27.7,32.7v77.7h-20v-71.6c0-8.9-1.1-14.4-2.8-17.8c-1.7-3.3-5.5-4.4-10.5-4.4c-11.1,0-21.6,7.8-31.6,23.9v69.9
				L156.9,667.5L156.9,667.5z"/>
			<path id="XMLID_4622_" fill="#FFFFFF" d="M257.9,663.6v-18.3c13.3,6.7,25.5,9.4,36.6,9.4c15,0,22.8-5.5,22.8-16.1
				c0-7.2-5.5-12.8-16.1-16.1l-17.8-5.5c-17.2-5.5-25.5-15.5-25.5-30.5c0-20,13.9-30,41.6-30c7.8,0,17.8,1.1,28.9,3.3v16.6
				c-10-3.3-20-5-30.5-5c-13.9,0-20.5,4.4-20.5,13.3c0,6.7,4.4,11.1,13.9,14.4l15.5,5c19.4,6.1,29.4,17.2,29.4,32.7
				c0,10-3.9,17.8-11.7,23.9c-7.8,6.1-18.3,8.9-31.6,8.9C283.4,670.3,271.2,668.1,257.9,663.6L257.9,663.6z"/>
			<path id="XMLID_4621_" fill="#FFFFFF" d="M395.5,668.1c-3.9,1.1-7.8,1.7-11.1,1.7c-17.8,0-26.6-10.5-26.6-32.2v-63.3H345v-15
				h12.2v-19.4l20-1.7v21.6h21.1v15h-21.1v59.9c0,8.3,0.6,14.4,2.2,17.2c1.7,2.8,4.4,4.4,9.4,4.4c2.8,0,5-0.6,6.7-1.1L395.5,668.1
				L395.5,668.1z"/>
			<path id="XMLID_4620_" fill="#FFFFFF" d="M514.8,667.5V559.3h20v20.5c2.8-6.7,6.1-12.2,9.4-15.5c5-5,10.5-7.2,17.2-7.2
				c1.1,0,3.3,0,5.5,0.6V576c-3.3-1.1-6.1-1.7-8.3-1.7c-7.2,0-15,7.2-23.3,22.2v71.6L514.8,667.5z"/>
			<path id="XMLID_4619_" fill="#FFFFFF" d="M532,667.5"/>
			<path id="XMLID_4616_" fill="#FFFFFF" d="M499.9,610.4c0-14.4-2.2-26.1-7.8-35c-7.2-12.2-19.4-18.3-36.6-18.3
				c-15,0-27.2,5-36.1,15c-8.9,10-13.3,23.3-13.3,40c0,17.8,5,31.6,15,42.2c10,10.5,23.3,15.5,40.5,15.5c11.1,0,23.9-2.2,37.2-6.1
				v-15.5c-12.2,4.4-23.3,6.7-33.3,6.7c-17.8,0-29.4-6.7-35-20.5c-1.7-3.9-3.3-10-3.9-17.8h72.7L499.9,610.4z M427.2,602
				c1.1-10.5,3.9-18.3,8.3-22.8c4.4-5,11.1-7.2,18.9-7.2c11.7,0,19.4,5,22.8,15.5c1.1,3.3,1.7,8.3,2.2,15L427.2,602L427.2,602z"/>
			<g id="XMLID_4610_">
				<path id="XMLID_4615_" fill="#FFFFFF" d="M44.8,638.1v29.4h25.5c-5.5-1.1-10.5-3.3-14.4-7.2C49.8,655.3,45.9,647.5,44.8,638.1z"
					/>
				<path id="XMLID_4614_" fill="#FFFFFF" d="M98.1,559.3H44.8v61.6c1.7-15.5,6.7-29.4,16.6-41.1C71.5,567.6,83.7,561,98.1,559.3z"
					/>
				<path id="XMLID_4613_" fill="#FFFFFF" d="M141.4,596.5v-37.2H107c10,0.6,18.3,3.9,24.4,10C138.1,575.4,140.8,584.8,141.4,596.5z
					"/>
				<path id="XMLID_4612_" fill="#FFFFFF" d="M141.4,600.4c-0.6,18.9-6.1,35-17.2,48.3c-8.9,10-18.9,16.6-30.5,18.9h47.7V600.4z"/>
				<path id="XMLID_4611_" fill="#FFFFFF" d="M101.4,573.7c-10.5,0-19.4,5.5-26.1,16.6c-7.2,11.1-10.5,24.4-10.5,40.5
					c0,7.8,1.7,13.9,5.5,17.8c3.3,4.4,8.3,6.1,14.4,6.1c9.4,0,17.2-4.4,23.9-13.3c8.3-11.7,12.8-26.1,12.8-43.8
					C120.8,581.5,114.2,573.7,101.4,573.7z"/>
			</g>
		</g>
	</g>
</g>
</svg>
