<?xml version="1.0" encoding="utf-8"?>
<!-- Generator: Adobe Illustrator 18.1.1, SVG Export Plug-In . SVG Version: 6.00 Build 0)  -->
<svg version="1.1" id="Layer_1" xmlns="http://www.w3.org/2000/svg" xmlns:xlink="http://www.w3.org/1999/xlink" x="0px" y="0px"
	 viewBox="0 0 298 168" enable-background="new 0 0 298 168" xml:space="preserve">
<g id="XMLID_6_">
	<path id="XMLID_5432_" fill="#FFFFFF" d="M242.6,48.3C234.1,20.8,195.4,0.1,149,0.1S63.9,20.8,55.4,48.3
		C23.1,57.1,0.2,79.7,0.2,106.2c0,34.1,38.2,61.8,85.3,61.8c25.3,0,48-8,63.6-20.6c15.6,12.7,38.3,20.6,63.6,20.6
		c47.1,0,85.3-27.7,85.3-61.8C297.8,79.7,274.9,57.1,242.6,48.3z"/>
	<g id="XMLID_670_">
		<path id="XMLID_1308_" fill="#F5C738" d="M43.2,104c4.9,1,10.3,2.2,10.3,7.8c0,5.6-5.6,8.1-10.3,8.1c-5,0-10.4-2-10.4-8
			c0-1.6,0.1-2.8,2.4-2.8c1.6,0,2.1,1.6,2.1,2.4c0,3.2,2.9,4,5.9,4c2.5,0,5.8-1.1,5.8-3.7c0-2.1-3.1-2.8-6.5-3.4
			c-4.6-1-9.4-1.8-9.4-6.9c0-5.4,5.7-6.8,9.8-6.8c4.8,0,10.1,1.8,10.1,7.7c0,1.3-1.3,2.1-2.4,2.1c-1.4,0-2.1-1.1-2.1-2.1
			c-0.1-0.8-0.2-1.3-0.8-1.9c-0.9-1.1-3.2-1.3-4.8-1.3c-1.9,0-5.3,0.3-5.3,2.3C37.5,102.7,40.3,103.4,43.2,104z"/>
		<path id="XMLID_1306_" fill="#F5C738" d="M79,114.2c-2.1,3.4-5.8,5.6-10,5.6c-7,0-11.9-6.1-11.9-12.7c0-6.5,4.9-12.6,11.9-12.6
			c3.4,0,6.3,1.4,8.6,3.7c0.9,0.7,1.6,2,1.6,3c0,1.3-1,2.3-2.3,2.3c-0.6,0-1.4-0.2-1.7-0.8c-1.4-2.3-3.7-3.7-6.3-3.7
			c-4.4,0-7.4,4-7.4,8.2c0,4.3,3.1,8.3,7.4,8.3c2.4,0,4.9-1.3,6-3.4v0.1c0.5-0.9,1.1-1.3,2.1-1.3c1.3,0,2.4,1,2.4,2.3
			C79.5,113.5,79.3,113.8,79,114.2z"/>
		<path id="XMLID_1304_" fill="#F5C738" d="M104.3,105.5v11.6c0,1.3-1.1,2.3-2.3,2.3c-1.2,0-2.2-1-2.2-2.3v-11.6
			c0-3.2-1.8-6.5-5.4-6.5c-4.8,0-6.4,3.2-6.4,8.5c0,0.1,0,0.4,0,0.6v9c0,1.3-1,2.3-2.3,2.3c-1.2,0-2.2-1-2.2-2.3V78.9
			c0-1.1,1-2.2,2.2-2.2c1.3,0,2.3,1.1,2.3,2.2V97c1.7-1.4,4-2.4,6.4-2.4C100.7,94.6,104.3,99.9,104.3,105.5z"/>
		<path id="XMLID_1301_" fill="#F5C738" d="M132.7,107.1c0,6.6-5,12.7-12,12.7c-7,0-12-6.1-12-12.7c0-6.5,5-12.6,12-12.6
			C127.7,94.4,132.7,100.6,132.7,107.1z M128.1,107.1c0-4.2-3-8.1-7.4-8.1c-4.4,0-7.5,4-7.5,8.1c0,4.3,3.1,8.3,7.5,8.3
			C125.1,115.3,128.1,111.4,128.1,107.1z"/>
		<path id="XMLID_1298_" fill="#F5C738" d="M159.9,107.1c0,6.6-5,12.7-12,12.7c-7,0-12-6.1-12-12.7c0-6.5,5-12.6,12-12.6
			C154.9,94.4,159.9,100.6,159.9,107.1z M155.3,107.1c0-4.2-3-8.1-7.4-8.1c-4.4,0-7.5,4-7.5,8.1c0,4.3,3.1,8.3,7.5,8.3
			C152.3,115.3,155.3,111.4,155.3,107.1z"/>
		<path id="XMLID_1296_" fill="#F5C738" d="M169.6,78.9v38.3c0,1.1-0.9,2.2-2.2,2.2c-1.3,0-2.3-1.1-2.3-2.2V78.9
			c0-1.1,1-2.2,2.3-2.2C168.7,76.7,169.6,77.8,169.6,78.9z"/>
		<path id="XMLID_1276_" fill="#F5C738" d="M201.1,107.3c0,6.6-5,12.7-12,12.7c-3,0-5.8-1.3-7.9-3.2v0.4c0,1.1-1,2.2-2.3,2.2
			c-1.2,0-2.2-1.1-2.2-2.2V78.9c0-1.1,1-2.2,2.2-2.2c1.3,0,2.3,1.1,2.3,2.2v18.9c2.1-1.8,5.1-3.1,7.9-3.1
			C196.1,94.6,201.1,100.8,201.1,107.3z M196.6,107.3c0-4.2-3.1-8.2-7.5-8.2c-4.4,0-7.5,4-7.5,8.2c0,4.2,3.1,8.3,7.5,8.3
			C193.4,115.5,196.6,111.5,196.6,107.3z"/>
		<path id="XMLID_1274_" opacity="0.1" fill="#958EA9" d="M231,107.1c0,6.6-5,12.7-12,12.7c-7,0-12-6.1-12-12.7
			c0-6.5,5-12.6,12-12.6C226,94.4,231,100.6,231,107.1z"/>
		<path id="XMLID_1272_" fill="#F5C738" d="M242.7,94.9c1.2,0,2.2,1.1,2.2,2.3c0,1.2-1,2.2-2.2,2.2H239v17.9c0,1.1-1,2.2-2.3,2.2
			c-1.2,0-2.2-1.1-2.2-2.2V99.4h-3.4c-1.3,0-2.3-1-2.3-2.2c0-1.1,1-2.3,2.3-2.3h3.4v-5.7c0-1.3,1-2.3,2.2-2.3c1.3,0,2.3,1,2.3,2.3
			v5.7H242.7z"/>
		<polygon id="XMLID_1271_" opacity="0.1" fill="#958EA9" points="206.1,57.8 211.3,54 209.3,53.3 210.5,50.6 206.6,53.5 208,54 		
			"/>
		<polygon id="XMLID_1270_" opacity="0.1" fill="#958EA9" points="204.1,55.5 206.2,49.9 204.7,50.2 203.9,47.2 202.4,51.8 
			203.9,51.5 		"/>
		<g id="XMLID_1264_" opacity="0.1">
			<path id="XMLID_1265_" fill="#958EA9" d="M229.6,88.4c-10.1,1.7-20.3,3.5-30.4,5.2c-2.8-5.3-2.7-12.1,0.6-17c1.5-2.2,3.5-3.9,5-6
				c1-1.4,1.8-3,2.6-4.6c0.2-0.4,0.4-0.9,0.5-1.3c0.1-0.9-0.4-1.8-0.8-2.6c-0.4-0.8-0.6-1.9,0-2.6c0.5-0.6,1.6-0.6,2.2-0.1
				s0.9,1.3,0.9,2.1c-0.1,1.1-0.6,2.3,0.1,3.1c0.4,0.5,1.1,0.6,1.6,0.8c1,0.4,1.7,1.3,2.6,1.9c1.5,1.1,3.3,1.7,5,2.5
				c3.6,1.7,6.5,4.5,8.3,8c1.4,2.6,2.2,5.6,2.1,8.6 M217.1,77c-1.6,0-3,1.7-3,3.9c0,2.1,1.3,3.9,3,3.9s3-1.7,3-3.9
				C220.1,78.8,218.7,77,217.1,77z M207.7,79.8c-1.3,0-2.3,1.4-2.3,3c0,1.7,1,3,2.3,3c1.3,0,2.3-1.4,2.3-3
				C210,81.1,209,79.8,207.7,79.8z"/>
		</g>
		<path id="XMLID_1256_" fill="#F5C738" d="M226.7,85.4c0,1-0.1,2-0.2,3l-0.1,0.5l-29,5l-0.2-0.5c-1.1-2.4-1.7-5.2-1.7-7.9
			c0-6.6,3.4-12.4,8.3-15.3l0,0c-0.3,0,0-3.2,2.1-4.5l-0.6-3.2c-0.4-0.2-0.8-0.6-0.9-1.2c-0.2-0.9,0.4-1.8,1.4-2s1.9,0.4,2.1,1.4
			c0.1,0.5-0.1,1-0.4,1.4l0.6,3.1c1.8,0.1,3.8,1.4,4.2,3.1C220.3,68.9,226.7,76.3,226.7,85.4z M214.5,76.6c-1.6,0-2.8,1.7-2.8,3.7
			c0,2,1.3,3.7,2.8,3.7c1.6,0,2.8-1.7,2.8-3.7C217.3,78.2,216,76.6,214.5,76.6z M205.5,79.2c-1.2,0-2.2,1.3-2.2,2.9s1,2.9,2.2,2.9
			c1.2,0,2.2-1.3,2.2-2.9S206.7,79.2,205.5,79.2z"/>
		<g id="XMLID_1125_">
			<path id="XMLID_1254_" fill="#FFFFFF" d="M226.4,88.9l0.1-0.5c0.2-1,0.2-2,0.2-3c0-9.1-6.4-16.5-14.4-17.2
				c-0.4-1.7-2.5-3-4.2-3.1l-0.6-3.1c0.3-0.4,0.5-0.9,0.4-1.4c-0.2-0.9-1-1.5-1.9-1.4c0.7,0.1,1.4,0.6,1.5,1.4
				c0.1,0.5-0.1,1-0.4,1.4l0.6,3.1c1.8,0.1,3.8,1.4,4.2,3.1c8.1,0.7,14.4,8.1,14.4,17.2c0,1-0.1,2-0.2,3l-0.1,0.5"/>
		</g>
		<polygon id="XMLID_1124_" fill="#F5C738" points="206.1,57.7 210.2,54.2 208.8,53.7 210.2,50.4 206.1,53.9 207.5,54.4 		"/>
		<polygon id="XMLID_1123_" fill="#FFFFFF" points="208.9,53.7 210.2,50.4 210,50.5 208.7,53.7 210.1,54.2 206.2,57.5 206.1,57.7 
			210.3,54.2 		"/>
		<polygon id="XMLID_1122_" fill="#F5C738" points="204.1,55.5 205.8,50.3 204.3,50.6 203.7,47.1 202.1,52.2 203.5,51.9 		"/>
		<polygon id="XMLID_1121_" fill="#FFFFFF" points="204.3,50.6 203.7,47.1 203.6,47.4 204.2,50.8 205.7,50.5 204.1,55.3 204.2,55.4 
			205.8,50.3 		"/>
		<g id="XMLID_866_">
			<g id="XMLID_1002_">
				<ellipse id="XMLID_1120_" fill-rule="evenodd" clip-rule="evenodd" fill="#F89A3B" cx="205.5" cy="82.2" rx="1" ry="1.2"/>
				<ellipse id="XMLID_1027_" fill-rule="evenodd" clip-rule="evenodd" fill="#F5C738" cx="205.5" cy="82.1" rx="0.8" ry="1"/>
			</g>
			<g id="XMLID_869_">
				<circle id="XMLID_921_" fill-rule="evenodd" clip-rule="evenodd" fill="#FFFFFF" cx="205.6" cy="81.4" r="0.3"/>
				<circle id="XMLID_871_" fill-rule="evenodd" clip-rule="evenodd" fill="#FFFFFF" cx="205.8" cy="82" r="0.1"/>
			</g>
		</g>
		<g id="XMLID_839_">
			<g id="XMLID_860_">
				<ellipse id="XMLID_864_" fill-rule="evenodd" clip-rule="evenodd" fill="#F89A3B" cx="214.3" cy="80.4" rx="1.4" ry="1.7"/>
				<ellipse id="XMLID_861_" fill-rule="evenodd" clip-rule="evenodd" fill="#F5C738" cx="214.3" cy="80.2" rx="1.1" ry="1.3"/>
			</g>
			<g id="XMLID_847_">
				<circle id="XMLID_857_" fill-rule="evenodd" clip-rule="evenodd" fill="#FFFFFF" cx="214.4" cy="79.2" r="0.3"/>
				<circle id="XMLID_852_" fill-rule="evenodd" clip-rule="evenodd" fill="#FFFFFF" cx="214.3" cy="79.8" r="0.1"/>
			</g>
		</g>
		<polygon id="XMLID_805_" opacity="0.1" fill="#958EA9" points="200.5,55.6 203.8,57 200.3,52.9 199.8,54.3 196.4,53 199.9,57 		
			"/>
		<g id="XMLID_770_">
			<polygon id="XMLID_796_" fill="#F5C738" points="200.5,56.1 203.8,57.4 200.3,53.3 199.8,54.7 196.4,53.4 200,57.4 			"/>
			<polygon id="XMLID_786_" fill="#FFFFFF" points="199.8,54.9 200.3,53.6 203.5,57.3 203.8,57.4 200.3,53.3 199.8,54.7 196.4,53.4 
				196.8,53.7 			"/>
		</g>
		<path id="XMLID_674_" fill="#F5C738" d="M228.2,107.1c0,6.6-5,12.7-12,12.7c-7,0-12-6.1-12-12.7c0-6.5,5-12.6,12-12.6
			C223.3,94.4,228.2,100.6,228.2,107.1z"/>
		<path id="XMLID_672_" fill="#F5C738" d="M227,107.1c0,6.6-5,12.7-12,12.7c-7,0-12-6.1-12-12.7c0-6.5,5-12.6,12-12.6
			C222,94.4,227,100.6,227,107.1z"/>
		<path id="XMLID_671_" fill="#FFFFFF" d="M216.3,94.4c-0.2,0-0.4,0-0.6,0c6.7,0.4,12.1,6.3,12.1,12.6c0,6.4-5.4,12.3-12.1,12.7
			c0.2,0,0.4,0,0.6,0c7,0,12-6.1,12-12.7C228.2,100.6,223.3,94.4,216.3,94.4z"/>
	</g>
</g>
</svg>
