<?xml version="1.0" encoding="utf-8"?>
<!-- Generator: Adobe Illustrator 18.1.1, SVG Export Plug-In . SVG Version: 6.00 Build 0)  -->
<svg version="1.1" id="Layer_1" xmlns="http://www.w3.org/2000/svg" xmlns:xlink="http://www.w3.org/1999/xlink" x="0px" y="0px"
	 viewBox="0 0 172.8 48.4" enable-background="new 0 0 172.8 48.4" xml:space="preserve">
<g id="XMLID_4606_">
	<g id="XMLID_4609_">
		<polygon id="XMLID_4629_" fill="#FFFFFF" points="7,47.9 0,28.4 3.6,28.4 9,43.6 14.8,28.4 17.9,28.4 10.5,47.9 		"/>
		<path id="XMLID_4626_" fill="#FFFFFF" d="M35,37.6c0-2.6-0.4-4.7-1.4-6.3C32.3,29.1,30.1,28,27,28c-2.7,0-4.9,0.9-6.5,2.7
			c-1.6,1.8-2.4,4.2-2.4,7.2c0,3.2,0.9,5.7,2.7,7.6c1.8,1.9,4.2,2.8,7.3,2.8c2,0,4.3-0.4,6.7-1.1v-2.8c-2.2,0.8-4.2,1.2-6,1.2
			c-3.2,0-5.3-1.2-6.3-3.7c-0.3-0.7-0.6-1.8-0.7-3.2H35L35,37.6z M21.9,36.1c0.2-1.9,0.7-3.3,1.5-4.1c0.8-0.9,2-1.3,3.4-1.3
			c2.1,0,3.5,0.9,4.1,2.8c0.2,0.6,0.3,1.5,0.4,2.7L21.9,36.1L21.9,36.1z"/>
		<path id="XMLID_4625_" fill="#FFFFFF" d="M38,47.9V28.4h3.6v3.7c0.5-1.2,1.1-2.2,1.7-2.8c0.9-0.9,1.9-1.3,3-1.3c0.2,0,0.6,0,1,0.1
			v3.3c-0.6-0.2-1.1-0.3-1.5-0.3c-1.3,0-2.7,1.3-4.2,4v12.9L38,47.9z"/>
		<path id="XMLID_4624_" fill="#FFFFFF" d="M50.4,47.9V28.4h3.6v3.7c1.1-1.6,1.9-2.6,2.6-3.2c0.8-0.6,1.8-0.9,3.1-0.9
			c1.6,0,2.8,0.5,3.8,1.5c0.6,0.6,1.1,1.5,1.5,2.6c1.1-1.6,1.9-2.6,2.6-3.2c0.8-0.6,1.8-0.9,3.1-0.9c3.5,0,5.3,1.9,5.3,5.7v14.2
			h-3.6l0-13.6c0-2.2-0.9-3.4-2.6-3.4c-1.5,0-3.1,1.3-4.8,3.9v13.1h-3.6V34.3c0-2.2-0.9-3.4-2.6-3.4c-1.5,0-3.1,1.3-4.8,3.9v13.1
			H50.4z"/>
		<path id="XMLID_4623_" fill="#FFFFFF" d="M99.1,47.9V28.4h3.6v3.7c0.9-1.2,1.7-2.1,2.6-2.7c1.2-0.9,2.6-1.3,4.1-1.3
			c3.3,0,5,2,5,5.9v14h-3.6V35.1c0-1.6-0.2-2.6-0.5-3.2c-0.3-0.6-1-0.8-1.9-0.8c-2,0-3.9,1.4-5.7,4.3v12.6L99.1,47.9L99.1,47.9z"/>
		<path id="XMLID_4622_" fill="#FFFFFF" d="M117.2,47.2V44c2.4,1.2,4.6,1.7,6.6,1.7c2.7,0,4.1-1,4.1-2.9c0-1.3-1-2.3-2.9-2.9l-3.2-1
			c-3.1-1-4.6-2.8-4.6-5.5c0-3.6,2.5-5.4,7.5-5.4c1.4,0,3.2,0.2,5.2,0.6v3c-1.8-0.6-3.6-0.9-5.5-0.9c-2.5,0-3.7,0.8-3.7,2.4
			c0,1.2,0.8,2,2.5,2.6l2.8,0.9c3.5,1.1,5.3,3.1,5.3,5.9c0,1.8-0.7,3.2-2.1,4.3c-1.4,1.1-3.3,1.6-5.7,1.6
			C121.8,48.4,119.7,48,117.2,47.2L117.2,47.2z"/>
		<path id="XMLID_4621_" fill="#FFFFFF" d="M142,48c-0.7,0.2-1.4,0.3-2,0.3c-3.2,0-4.8-1.9-4.8-5.8V31.1h-2.2v-2.7h2.2v-3.5l3.6-0.3
			v3.9h3.8v2.7h-3.8v10.8c0,1.5,0.1,2.6,0.4,3.1c0.3,0.5,0.8,0.8,1.7,0.8c0.5,0,0.9-0.1,1.2-0.2L142,48L142,48z"/>
		<path id="XMLID_4620_" fill="#FFFFFF" d="M163.5,47.9V28.4h3.6v3.7c0.5-1.2,1.1-2.2,1.7-2.8c0.9-0.9,1.9-1.3,3.1-1.3
			c0.2,0,0.6,0,1,0.1v3.3c-0.6-0.2-1.1-0.3-1.5-0.3c-1.3,0-2.7,1.3-4.2,4v12.9L163.5,47.9z"/>
		<path id="XMLID_4619_" fill="#FFFFFF" d="M166.7,47.9"/>
		<path id="XMLID_4616_" fill="#FFFFFF" d="M160.8,37.6c0-2.6-0.4-4.7-1.4-6.3c-1.3-2.2-3.5-3.3-6.6-3.3c-2.7,0-4.9,0.9-6.5,2.7
			c-1.6,1.8-2.4,4.2-2.4,7.2c0,3.2,0.9,5.7,2.7,7.6c1.8,1.9,4.2,2.8,7.3,2.8c2,0,4.3-0.4,6.7-1.1v-2.8c-2.2,0.8-4.2,1.2-6,1.2
			c-3.2,0-5.3-1.2-6.3-3.7c-0.3-0.7-0.6-1.8-0.7-3.2h13.1L160.8,37.6z M147.7,36.1c0.2-1.9,0.7-3.3,1.5-4.1c0.8-0.9,2-1.3,3.4-1.3
			c2.1,0,3.5,0.9,4.1,2.8c0.2,0.6,0.3,1.5,0.4,2.7L147.7,36.1L147.7,36.1z"/>
		<g id="XMLID_4610_">
			<path id="XMLID_4615_" fill="#FFFFFF" d="M78.8,42.6v5.3h4.6c-1-0.2-1.9-0.6-2.6-1.3C79.7,45.7,79,44.3,78.8,42.6z"/>
			<path id="XMLID_4614_" fill="#FFFFFF" d="M88.4,28.4h-9.6v11.1c0.3-2.8,1.2-5.3,3-7.4C83.6,29.9,85.8,28.7,88.4,28.4z"/>
			<path id="XMLID_4613_" fill="#FFFFFF" d="M96.2,35.1v-6.7H90c1.8,0.1,3.3,0.7,4.4,1.8C95.6,31.3,96.1,33,96.2,35.1z"/>
			<path id="XMLID_4612_" fill="#FFFFFF" d="M96.2,35.8c-0.1,3.4-1.1,6.3-3.1,8.7c-1.6,1.8-3.4,3-5.5,3.4h8.6V35.8z"/>
			<path id="XMLID_4611_" fill="#FFFFFF" d="M89,31c-1.9,0-3.5,1-4.7,3c-1.3,2-1.9,4.4-1.9,7.3c0,1.4,0.3,2.5,1,3.2
				c0.6,0.8,1.5,1.1,2.6,1.1c1.7,0,3.1-0.8,4.3-2.4c1.5-2.1,2.3-4.7,2.3-7.9C92.5,32.4,91.4,31,89,31z"/>
		</g>
	</g>
	<rect id="XMLID_4_" x="0" y="1.1" fill="none" width="114" height="22.5"/>
	
		<text id="XMLID_4607_" transform="matrix(1 0 0 1 -5.212380e-05 15.6885)" fill="#FFFFFF" font-family="'MerriweatherSans-Regular'" font-size="18">powered by</text>
</g>
</svg>
