<?xml version="1.0" encoding="utf-8"?>
<!-- Generator: Adobe Illustrator 18.1.1, SVG Export Plug-In . SVG Version: 6.00 Build 0)  -->
<svg version="1.1" id="Layer_1" xmlns="http://www.w3.org/2000/svg" xmlns:xlink="http://www.w3.org/1999/xlink" x="0px" y="0px"
	 viewBox="0 0 93.8 105.4" enable-background="new 0 0 93.8 105.4" xml:space="preserve">
<g id="XMLID_805_">
	<rect id="XMLID_977_" x="56.1" y="55.7" fill="#66CCE8" width="8.5" height="8.4"/>
	<rect id="XMLID_976_" x="9" y="67.3" fill="#66CCE8" width="8.5" height="8.4"/>
	<path id="XMLID_975_" fill="#66CCE8" d="M19,22.9h-1.8c-2.1,0-3.9,1.1-3.9,3.2v2.4l0,0v6.6h8.8v-4.4v-2.1v-2.5
		C22.1,24,21.1,22.9,19,22.9z"/>
	<path id="XMLID_2204_" fill="#66CCE8" d="M18.9,18.8h-1.8c-2.1,0-3.8,1.1-3.8,3.1v2.4l0,0v6.6H22v-4.4v-2.1v-2.5
		C22,19.9,21,18.8,18.9,18.8z"/>
	<path id="XMLID_3278_" fill="#F6C838" d="M0,46l8.5-8.5h76.3l9,8.9C93.8,46.4,0.3,45.6,0,46z"/>
	<rect id="XMLID_3277_" x="3.7" y="44.9" fill="#F6C838" width="86.7" height="60.6"/>
	<path id="XMLID_974_" fill="#F8B558" d="M38.6,37.5h-11V18.7c2,0,2.4,0,2.4,0L18,0L6.3,18.7c0-0.1,2.3-0.1,4.3-0.1v18.9H8.7L0.5,46
		c0,0,2.1,0.2,3.1,0.2v59.1l35-0.1V46.6V37.5z"/>
	<path id="XMLID_3268_" fill="#3073B3" d="M48.8,73.2h-4.7c-1,0-1.8-0.8-1.8-1.8v-4.6c0-1,0.8-1.8,1.8-1.8h4.7c1,0,1.8,0.8,1.8,1.8
		v4.6C50.6,72.3,49.8,73.2,48.8,73.2z"/>
	<path id="XMLID_3267_" fill="#E66366" d="M62,73.2h-5c-0.9,0-1.7-0.8-1.7-1.7v-4.9c0-0.9,0.8-1.7,1.7-1.7h5c0.9,0,1.7,0.8,1.7,1.7
		v4.9C63.7,72.4,63,73.2,62,73.2z"/>
	<path id="XMLID_3266_" fill="#66CCE8" d="M48.8,84.7h-4.7c-1,0-1.8-0.8-1.8-1.8v-4.7c0-1,0.8-1.8,1.8-1.8h4.7c1,0,1.8,0.8,1.8,1.8
		v4.7C50.6,83.9,49.8,84.7,48.8,84.7z"/>
	<path id="XMLID_3265_" fill="#3073B3" d="M61.9,84.7h-4.7c-1,0-1.8-0.8-1.8-1.8v-4.6c0-1,0.8-1.8,1.8-1.8h4.7c1,0,1.8,0.8,1.8,1.8
		v4.6C63.7,83.9,62.9,84.7,61.9,84.7z"/>
	<path id="XMLID_3264_" fill="#E66366" d="M49,96.2h-5.1c-0.9,0-1.6-0.7-1.6-1.6v-5c0-0.9,0.7-1.6,1.6-1.6H49c0.9,0,1.6,0.7,1.6,1.6
		v5C50.6,95.5,49.9,96.2,49,96.2z"/>
	<path id="XMLID_3263_" fill="#66CCE8" d="M61.9,96.2h-4.8c-1,0-1.8-0.8-1.8-1.8v-4.7c0-1,0.8-1.8,1.8-1.8h4.8c1,0,1.8,0.8,1.8,1.8
		v4.7C63.7,95.4,62.9,96.2,61.9,96.2z"/>
	<path id="XMLID_3262_" fill="#F89A3B" d="M48.8,61.6H44c-1,0-1.8-0.8-1.8-1.8v-4.7c0-1,0.8-1.8,1.8-1.8h4.8c1,0,1.8,0.8,1.8,1.8
		v4.7C50.6,60.8,49.8,61.6,48.8,61.6z"/>
	<path id="XMLID_3261_" fill="#66CCE8" d="M62,61.6h-4.9c-1,0-1.7-0.8-1.7-1.7V55c0-1,0.8-1.7,1.7-1.7H62c1,0,1.7,0.8,1.7,1.7v4.8
		C63.7,60.8,62.9,61.6,62,61.6z"/>
	<path id="XMLID_3260_" fill="#E66366" d="M75.1,73.2h-5c-0.9,0-1.7-0.8-1.7-1.7v-5c0-0.9,0.8-1.7,1.7-1.7h5c0.9,0,1.7,0.8,1.7,1.7
		v5C76.8,72.4,76.1,73.2,75.1,73.2z"/>
	<path id="XMLID_3259_" fill="#66CCE8" d="M75,84.7h-4.8c-1,0-1.8-0.8-1.8-1.8v-4.7c0-1,0.8-1.8,1.8-1.8H75c1,0,1.8,0.8,1.8,1.8v4.7
		C76.8,83.9,76,84.7,75,84.7z"/>
	<path id="XMLID_3258_" fill="#F89A3B" d="M74.7,96.2h-4.1c-1.2,0-2.1-1-2.1-2.1v-4c0-1.2,1-2.1,2.1-2.1h4.1c1.2,0,2.1,1,2.1,2.1v4
		C76.8,95.3,75.9,96.2,74.7,96.2z"/>
	<path id="XMLID_3257_" fill="#3073B3" d="M75,61.6h-4.7c-1,0-1.8-0.8-1.8-1.8v-4.6c0-1,0.8-1.8,1.8-1.8H75c1,0,1.8,0.8,1.8,1.8v4.6
		C76.8,60.8,76,61.6,75,61.6z"/>
	<g id="XMLID_817_">
		<defs>
			<path id="XMLID_818_" d="M38.6,37.5h-11V18.7c2,0,2.4,0,2.4,0L18,0L6.3,18.7c0-0.1,2.3-0.1,4.3-0.1v18.9H8.7L0.5,46
				c0,0,2.1,0.2,3.1,0.2v59.1l35-0.1V46.6V37.5z"/>
		</defs>
		<clipPath id="XMLID_2_">
			<use xlink:href="#XMLID_818_"  overflow="visible"/>
		</clipPath>
		<g id="XMLID_819_" clip-path="url(#XMLID_2_)">
			<rect id="XMLID_973_" x="-57.4" y="229.5" fill="#F89A3B" width="165" height="1"/>
			<rect id="XMLID_972_" x="-57.4" y="227.5" fill="#F89A3B" width="165" height="1"/>
			<rect id="XMLID_971_" x="-57.4" y="225.5" fill="#F89A3B" width="165" height="1"/>
			<rect id="XMLID_970_" x="-57.4" y="223.5" fill="#F89A3B" width="165" height="1"/>
			<rect id="XMLID_969_" x="-57.4" y="221.5" fill="#F89A3B" width="165" height="1"/>
			<rect id="XMLID_968_" x="-57.4" y="219.5" fill="#F89A3B" width="165" height="1"/>
			<rect id="XMLID_967_" x="-57.4" y="217.5" fill="#F89A3B" width="165" height="1"/>
			<rect id="XMLID_966_" x="-57.4" y="215.5" fill="#F89A3B" width="165" height="1"/>
			<rect id="XMLID_965_" x="-57.4" y="213.5" fill="#F89A3B" width="165" height="1"/>
			<rect id="XMLID_964_" x="-57.4" y="211.5" fill="#F89A3B" width="165" height="1"/>
			<rect id="XMLID_963_" x="-57.4" y="209.5" fill="#F89A3B" width="165" height="1"/>
			<rect id="XMLID_962_" x="-57.4" y="207.5" fill="#F89A3B" width="165" height="1"/>
			<rect id="XMLID_961_" x="-57.4" y="205.5" fill="#F89A3B" width="165" height="1"/>
			<rect id="XMLID_960_" x="-57.4" y="203.5" fill="#F89A3B" width="165" height="1"/>
			<rect id="XMLID_959_" x="-57.4" y="201.5" fill="#F89A3B" width="165" height="1"/>
			<rect id="XMLID_958_" x="-57.4" y="199.5" fill="#F89A3B" width="165" height="1"/>
			<rect id="XMLID_957_" x="-57.4" y="197.5" fill="#F89A3B" width="165" height="1"/>
			<rect id="XMLID_956_" x="-57.4" y="195.5" fill="#F89A3B" width="165" height="1"/>
			<rect id="XMLID_955_" x="-57.4" y="193.5" fill="#F89A3B" width="165" height="1"/>
			<rect id="XMLID_954_" x="-57.4" y="191.5" fill="#F89A3B" width="165" height="1"/>
			<rect id="XMLID_953_" x="-57.4" y="189.5" fill="#F89A3B" width="165" height="1"/>
			<rect id="XMLID_952_" x="-57.4" y="187.5" fill="#F89A3B" width="165" height="1"/>
			<rect id="XMLID_951_" x="-57.4" y="185.5" fill="#F89A3B" width="165" height="1"/>
			<rect id="XMLID_950_" x="-57.4" y="183.5" fill="#F89A3B" width="165" height="1"/>
			<rect id="XMLID_949_" x="-57.4" y="181.5" fill="#F89A3B" width="165" height="1"/>
			<rect id="XMLID_948_" x="-57.4" y="179.5" fill="#F89A3B" width="165" height="1"/>
			<rect id="XMLID_947_" x="-57.4" y="177.5" fill="#F89A3B" width="165" height="1"/>
			<rect id="XMLID_946_" x="-57.4" y="175.5" fill="#F89A3B" width="165" height="1"/>
			<rect id="XMLID_945_" x="-57.4" y="173.5" fill="#F89A3B" width="165" height="1"/>
			<rect id="XMLID_944_" x="-57.4" y="171.5" fill="#F89A3B" width="165" height="1"/>
			<rect id="XMLID_943_" x="-57.4" y="169.5" fill="#F89A3B" width="165" height="1"/>
			<rect id="XMLID_942_" x="-57.4" y="167.5" fill="#F89A3B" width="165" height="1"/>
			<rect id="XMLID_941_" x="-57.4" y="165.5" fill="#F89A3B" width="165" height="1"/>
			<rect id="XMLID_940_" x="-57.4" y="163.5" fill="#F89A3B" width="165" height="1"/>
			<rect id="XMLID_939_" x="-57.4" y="161.5" fill="#F89A3B" width="165" height="1"/>
			<rect id="XMLID_938_" x="-57.4" y="159.5" fill="#F89A3B" width="165" height="1"/>
			<rect id="XMLID_937_" x="-57.4" y="157.5" fill="#F89A3B" width="165" height="1"/>
			<rect id="XMLID_936_" x="-57.4" y="155.5" fill="#F89A3B" width="165" height="1"/>
			<rect id="XMLID_935_" x="-57.4" y="153.5" fill="#F89A3B" width="165" height="1"/>
			<rect id="XMLID_934_" x="-57.4" y="151.5" fill="#F89A3B" width="165" height="1"/>
			<rect id="XMLID_933_" x="-57.4" y="149.5" fill="#F89A3B" width="165" height="1"/>
			<rect id="XMLID_932_" x="-57.4" y="147.5" fill="#F89A3B" width="165" height="1"/>
			<rect id="XMLID_931_" x="-57.4" y="145.5" fill="#F89A3B" width="165" height="1"/>
			<rect id="XMLID_930_" x="-57.4" y="143.5" fill="#F89A3B" width="165" height="1"/>
			<rect id="XMLID_929_" x="-57.4" y="141.5" fill="#F89A3B" width="165" height="1"/>
			<rect id="XMLID_928_" x="-57.4" y="139.5" fill="#F89A3B" width="165" height="1"/>
			<rect id="XMLID_927_" x="-57.4" y="137.5" fill="#F89A3B" width="165" height="1"/>
			<rect id="XMLID_926_" x="-57.4" y="135.5" fill="#F89A3B" width="165" height="1"/>
			<rect id="XMLID_925_" x="-57.4" y="133.5" fill="#F89A3B" width="165" height="1"/>
			<rect id="XMLID_924_" x="-57.4" y="131.5" fill="#F89A3B" width="165" height="1"/>
			<rect id="XMLID_923_" x="-57.4" y="129.5" fill="#F89A3B" width="165" height="1"/>
			<rect id="XMLID_905_" x="-57.4" y="127.5" fill="#F89A3B" width="165" height="1"/>
			<rect id="XMLID_904_" x="-57.4" y="125.5" fill="#F89A3B" width="165" height="1"/>
			<rect id="XMLID_903_" x="-57.4" y="123.5" fill="#F89A3B" width="165" height="1"/>
			<rect id="XMLID_902_" x="-57.4" y="121.5" fill="#F89A3B" width="165" height="1"/>
			<rect id="XMLID_901_" x="-57.4" y="119.5" fill="#F89A3B" width="165" height="1"/>
			<rect id="XMLID_900_" x="-57.4" y="117.5" fill="#F89A3B" width="165" height="1"/>
			<rect id="XMLID_899_" x="-57.4" y="115.5" fill="#F89A3B" width="165" height="1"/>
			<rect id="XMLID_898_" x="-57.4" y="113.5" fill="#F89A3B" width="165" height="1"/>
			<rect id="XMLID_897_" x="-57.4" y="111.5" fill="#F89A3B" width="165" height="1"/>
			<rect id="XMLID_896_" x="-57.4" y="109.5" fill="#F89A3B" width="165" height="1"/>
			<rect id="XMLID_895_" x="-57.4" y="107.5" fill="#F89A3B" width="165" height="1"/>
			<rect id="XMLID_894_" x="-57.4" y="105.5" fill="#F89A3B" width="165" height="1"/>
			<rect id="XMLID_893_" x="-57.4" y="103.5" fill="#F89A3B" width="165" height="1"/>
			<rect id="XMLID_892_" x="-57.4" y="101.5" fill="#F89A3B" width="165" height="1"/>
			<rect id="XMLID_891_" x="-57.4" y="99.5" fill="#F89A3B" width="165" height="1"/>
			<rect id="XMLID_890_" x="-57.4" y="97.5" fill="#F89A3B" width="165" height="1"/>
			<rect id="XMLID_889_" x="-57.4" y="95.5" fill="#F89A3B" width="165" height="1"/>
			<rect id="XMLID_885_" x="-57.4" y="93.5" fill="#F89A3B" width="165" height="1"/>
			<rect id="XMLID_884_" x="-57.4" y="91.5" fill="#F89A3B" width="165" height="1"/>
			<rect id="XMLID_883_" x="-57.4" y="89.5" fill="#F89A3B" width="165" height="1"/>
			<rect id="XMLID_881_" x="-57.4" y="87.5" fill="#F89A3B" width="165" height="1"/>
			<rect id="XMLID_880_" x="-57.4" y="85.5" fill="#F89A3B" width="165" height="1"/>
			<rect id="XMLID_879_" x="-57.4" y="83.5" fill="#F89A3B" width="165" height="1"/>
			<rect id="XMLID_878_" x="-57.4" y="81.5" fill="#F89A3B" width="165" height="1"/>
			<rect id="XMLID_877_" x="-57.4" y="79.5" fill="#F89A3B" width="165" height="1"/>
			<rect id="XMLID_876_" x="-57.4" y="77.5" fill="#F89A3B" width="165" height="1"/>
			<rect id="XMLID_875_" x="-57.4" y="75.5" fill="#F89A3B" width="165" height="1"/>
			<rect id="XMLID_874_" x="-57.4" y="73.5" fill="#F89A3B" width="165" height="1"/>
			<rect id="XMLID_873_" x="-57.4" y="71.5" fill="#F89A3B" width="165" height="1"/>
			<rect id="XMLID_872_" x="-57.4" y="69.5" fill="#F89A3B" width="165" height="1"/>
			<rect id="XMLID_871_" x="-57.4" y="67.5" fill="#F89A3B" width="165" height="1"/>
			<rect id="XMLID_870_" x="-57.4" y="65.5" fill="#F89A3B" width="165" height="1"/>
			<rect id="XMLID_869_" x="-57.4" y="63.5" fill="#F89A3B" width="165" height="1"/>
			<rect id="XMLID_868_" x="-57.4" y="61.5" fill="#F89A3B" width="165" height="1"/>
			<rect id="XMLID_867_" x="-57.4" y="59.5" fill="#F89A3B" width="165" height="1"/>
			<rect id="XMLID_866_" x="-57.4" y="57.5" fill="#F89A3B" width="165" height="1"/>
			<rect id="XMLID_865_" x="-57.4" y="55.5" fill="#F89A3B" width="165" height="1"/>
			<rect id="XMLID_864_" x="-57.4" y="53.5" fill="#F89A3B" width="165" height="1"/>
			<rect id="XMLID_863_" x="-57.4" y="51.5" fill="#F89A3B" width="165" height="1"/>
			<rect id="XMLID_862_" x="-57.4" y="49.5" fill="#F89A3B" width="165" height="1"/>
			<rect id="XMLID_861_" x="-57.4" y="47.5" fill="#F89A3B" width="165" height="1"/>
			<rect id="XMLID_860_" x="-57.4" y="45.5" fill="#F89A3B" width="165" height="1"/>
			<rect id="XMLID_859_" x="-57.4" y="43.5" fill="#F89A3B" width="165" height="1"/>
			<rect id="XMLID_858_" x="-57.4" y="41.5" fill="#F89A3B" width="165" height="1"/>
			<rect id="XMLID_857_" x="-57.4" y="39.5" fill="#F89A3B" width="165" height="1"/>
			<rect id="XMLID_856_" x="-57.4" y="37.5" fill="#F89A3B" width="165" height="1"/>
			<rect id="XMLID_855_" x="-57.4" y="35.5" fill="#F89A3B" width="165" height="1"/>
			<rect id="XMLID_854_" x="-57.4" y="33.5" fill="#F89A3B" width="165" height="1"/>
			<rect id="XMLID_853_" x="-57.4" y="31.5" fill="#F89A3B" width="165" height="1"/>
			<rect id="XMLID_852_" x="-57.4" y="29.5" fill="#F89A3B" width="165" height="1"/>
			<rect id="XMLID_851_" x="-57.4" y="27.5" fill="#F89A3B" width="165" height="1"/>
			<rect id="XMLID_850_" x="-57.4" y="25.5" fill="#F89A3B" width="165" height="1"/>
			<rect id="XMLID_849_" x="-57.4" y="23.5" fill="#F89A3B" width="165" height="1"/>
			<rect id="XMLID_848_" x="-57.4" y="21.5" fill="#F89A3B" width="165" height="1"/>
			<rect id="XMLID_847_" x="-57.4" y="19.5" fill="#F89A3B" width="165" height="1"/>
			<rect id="XMLID_846_" x="-57.4" y="17.5" fill="#F89A3B" width="165" height="1"/>
			<rect id="XMLID_845_" x="-57.4" y="15.5" fill="#F89A3B" width="165" height="1"/>
			<rect id="XMLID_844_" x="-57.4" y="13.5" fill="#F89A3B" width="165" height="1"/>
			<rect id="XMLID_843_" x="-57.4" y="11.5" fill="#F89A3B" width="165" height="1"/>
			<rect id="XMLID_842_" x="-57.4" y="9.5" fill="#F89A3B" width="165" height="1"/>
			<rect id="XMLID_841_" x="-57.4" y="7.5" fill="#F89A3B" width="165" height="1"/>
			<rect id="XMLID_840_" x="-57.4" y="5.5" fill="#F89A3B" width="165" height="1"/>
			<rect id="XMLID_839_" x="-57.4" y="3.5" fill="#F89A3B" width="165" height="1"/>
			<rect id="XMLID_838_" x="-57.4" y="1.5" fill="#F89A3B" width="165" height="1"/>
			<rect id="XMLID_837_" x="-57.4" y="-0.5" fill="#F89A3B" width="165" height="1"/>
			<rect id="XMLID_836_" x="-57.4" y="-2.5" fill="#F89A3B" width="165" height="1"/>
			<rect id="XMLID_835_" x="-57.4" y="-4.5" fill="#F89A3B" width="165" height="1"/>
			<rect id="XMLID_834_" x="-57.4" y="-6.5" fill="#F89A3B" width="165" height="1"/>
			<rect id="XMLID_832_" x="-57.4" y="-8.5" fill="#F89A3B" width="165" height="1"/>
			<rect id="XMLID_828_" x="-57.4" y="-10.5" fill="#F89A3B" width="165" height="1"/>
			<rect id="XMLID_827_" x="-57.4" y="-12.5" fill="#F89A3B" width="165" height="1"/>
			<rect id="XMLID_826_" x="-57.4" y="-14.5" fill="#F89A3B" width="165" height="1"/>
			<rect id="XMLID_825_" x="-57.4" y="-16.5" fill="#F89A3B" width="165" height="1"/>
			<rect id="XMLID_823_" x="-57.4" y="-18.5" fill="#F89A3B" width="165" height="1"/>
			<rect id="XMLID_822_" x="-57.4" y="-20.5" fill="#F89A3B" width="165" height="1"/>
			<rect id="XMLID_821_" x="-57.4" y="-22.5" fill="#F89A3B" width="165" height="1"/>
			<rect id="XMLID_820_" x="-57.4" y="-24.5" fill="#F89A3B" width="165" height="1"/>
		</g>
	</g>
	<g id="XMLID_816_">
		<rect id="XMLID_3191_" x="15.8" y="84.9" fill="#2A1F50" width="8.4" height="20.6"/>
		<path id="XMLID_3190_" fill="#66CCE8" d="M15.6,73.2h-4.8c-1,0-1.8-0.8-1.8-1.8v-4.7c0-1,0.8-1.8,1.8-1.8h4.8c1,0,1.8,0.8,1.8,1.8
			v4.7C17.4,72.3,16.6,73.2,15.6,73.2z"/>
		<path id="XMLID_3189_" fill="#E66366" d="M29.1,73.2h-5c-0.9,0-1.7-0.8-1.7-1.7v-4.9c0-0.9,0.8-1.7,1.7-1.7h5
			c0.9,0,1.7,0.8,1.7,1.7v4.9C30.8,72.4,30,73.2,29.1,73.2z"/>
		<path id="XMLID_3188_" fill="#3073B3" d="M15.7,61.6h-4.9c-1,0-1.8-0.8-1.8-1.8v-4.8c0-1,0.8-1.8,1.8-1.8h4.9c1,0,1.8,0.8,1.8,1.8
			v4.8C17.4,60.8,16.6,61.6,15.7,61.6z"/>
		<path id="XMLID_3187_" fill="#F89A3B" d="M28.9,61.6h-4.8c-1,0-1.8-0.8-1.8-1.8v-4.7c0-1,0.8-1.8,1.8-1.8h4.8c1,0,1.8,0.8,1.8,1.8
			v4.7C30.8,60.8,29.9,61.6,28.9,61.6z"/>
	</g>
	<g id="XMLID_806_">
		<path id="XMLID_2258_" fill="#66CCE8" d="M20.4,19.8h-1.9c-2.2,0-4,1.2-4,3.3v2.5l0,0v6.9h9.1v-4.6v-2.2V23
			C23.6,20.9,22.5,19.8,20.4,19.8z"/>
		<g id="XMLID_807_">
			<g id="XMLID_814_">
				<path id="XMLID_815_" fill="#2A1F50" d="M19.1,24.2c0.3,0,1.8,0,2.8,0.3c-0.2-0.3-0.4-0.7-0.4-1V22c0-1.2-1.1-1.4-2.4-1.4l0,0
					c0,0,0,0,0,0c0,0,0,0,0,0l0,0c-1.3,0-2.4,0.2-2.4,1.4v1.4c0,0.4-0.1,0.7-0.4,1C17.4,24.2,18.9,24.2,19.1,24.2z"/>
			</g>
			<g id="XMLID_812_">
				<ellipse id="XMLID_813_" fill="#3073B3" cx="19.2" cy="24.8" rx="3.5" ry="0.7"/>
			</g>
			<g id="XMLID_810_">
				<ellipse id="XMLID_811_" fill="#2A1F50" cx="19.2" cy="20.4" rx="0.6" ry="0.6"/>
			</g>
			<g id="XMLID_808_">
				<ellipse id="XMLID_809_" fill="#2A1F50" cx="19.2" cy="24.5" rx="0.7" ry="0.6"/>
			</g>
		</g>
	</g>
</g>
</svg>
