<?xml version="1.0" encoding="utf-8"?>
<!-- Generator: Adobe Illustrator 18.1.1, SVG Export Plug-In . SVG Version: 6.00 Build 0)  -->
<svg version="1.1" id="Layer_1" xmlns="http://www.w3.org/2000/svg" xmlns:xlink="http://www.w3.org/1999/xlink" x="0px" y="0px"
	 viewBox="0 0 116.6 40.2" enable-background="new 0 0 116.6 40.2" xml:space="preserve">
<g id="XMLID_3284_">
	<path id="XMLID_3343_" fill="#F5C738" d="M5.7,31.4c2.7,0.5,5.6,1.2,5.6,4.3c0,3.1-3.1,4.5-5.6,4.5C3,40.2,0,39.1,0,35.8
		c0-0.9,0.1-1.6,1.3-1.6c0.9,0,1.1,0.9,1.1,1.3c0,1.8,1.6,2.2,3.3,2.2c1.4,0,3.2-0.6,3.2-2c0-1.2-1.7-1.5-3.6-1.9
		c-2.6-0.5-5.2-1-5.2-3.8c0-3,3.1-3.7,5.4-3.7c2.6,0,5.6,1,5.6,4.2c0,0.7-0.7,1.2-1.3,1.2c-0.8,0-1.1-0.6-1.2-1.2
		c0-0.4-0.1-0.7-0.4-1c-0.5-0.6-1.8-0.7-2.7-0.7c-1,0-2.9,0.2-2.9,1.2C2.6,30.7,4.2,31.1,5.7,31.4z"/>
	<path id="XMLID_3341_" fill="#F5C738" d="M25.5,37c-1.2,1.9-3.2,3.1-5.5,3.1c-3.8,0-6.5-3.4-6.5-7c0-3.6,2.7-6.9,6.5-6.9
		c1.8,0,3.5,0.8,4.7,2.1c0.5,0.4,0.9,1.1,0.9,1.6c0,0.7-0.5,1.2-1.3,1.2c-0.3,0-0.7-0.1-0.9-0.4c-0.7-1.2-2-2.1-3.5-2.1
		c-2.4,0-4.1,2.2-4.1,4.5c0,2.4,1.7,4.5,4.1,4.5c1.3,0,2.7-0.7,3.3-1.9v0c0.3-0.5,0.6-0.7,1.1-0.7c0.7,0,1.3,0.5,1.3,1.2
		C25.7,36.7,25.6,36.8,25.5,37z"/>
	<path id="XMLID_3339_" fill="#F5C738" d="M39.3,32.3v6.4c0,0.7-0.6,1.2-1.3,1.2c-0.7,0-1.2-0.5-1.2-1.2v-6.4c0-1.8-1-3.6-2.9-3.6
		c-2.6,0-3.5,1.7-3.5,4.7c0,0,0,0.2,0,0.3v5c0,0.7-0.5,1.2-1.3,1.2c-0.7,0-1.2-0.5-1.2-1.2v-21c0-0.6,0.5-1.2,1.2-1.2
		c0.7,0,1.3,0.6,1.3,1.2v9.9c0.9-0.8,2.2-1.3,3.5-1.3C37.4,26.2,39.3,29.2,39.3,32.3z"/>
	<path id="XMLID_3336_" fill="#F5C738" d="M54.9,33.1c0,3.6-2.7,7-6.6,7c-3.8,0-6.6-3.3-6.6-7c0-3.6,2.7-6.9,6.6-6.9
		C52.2,26.2,54.9,29.5,54.9,33.1z M52.4,33.1c0-2.3-1.6-4.5-4.1-4.5c-2.4,0-4.1,2.2-4.1,4.5c0,2.4,1.7,4.5,4.1,4.5
		C50.8,37.7,52.4,35.5,52.4,33.1z"/>
	<path id="XMLID_3333_" fill="#F5C738" d="M69.9,33.1c0,3.6-2.7,7-6.6,7c-3.8,0-6.6-3.3-6.6-7c0-3.6,2.7-6.9,6.6-6.9
		C67.1,26.2,69.9,29.5,69.9,33.1z M67.4,33.1c0-2.3-1.6-4.5-4.1-4.5c-2.4,0-4.1,2.2-4.1,4.5c0,2.4,1.7,4.5,4.1,4.5
		C65.7,37.7,67.4,35.5,67.4,33.1z"/>
	<path id="XMLID_3331_" fill="#F5C738" d="M75.3,17.6v21.1c0,0.6-0.5,1.2-1.2,1.2c-0.7,0-1.3-0.6-1.3-1.2V17.6
		c0-0.6,0.5-1.2,1.3-1.2C74.8,16.4,75.3,17,75.3,17.6z"/>
	<path id="XMLID_3328_" fill="#F5C738" d="M92.6,33.2c0,3.6-2.7,7-6.6,7c-1.6,0-3.2-0.7-4.4-1.7v0.2c0,0.6-0.5,1.2-1.3,1.2
		c-0.7,0-1.2-0.6-1.2-1.2V17.6c0-0.6,0.6-1.2,1.2-1.2c0.7,0,1.3,0.6,1.3,1.2V28c1.1-1,2.8-1.7,4.4-1.7
		C89.8,26.3,92.6,29.7,92.6,33.2z M90.1,33.2c0-2.3-1.7-4.5-4.1-4.5c-2.4,0-4.1,2.2-4.1,4.5c0,2.3,1.7,4.5,4.1,4.5
		C88.4,37.8,90.1,35.6,90.1,33.2z"/>
	<path id="XMLID_3326_" opacity="0.5" fill="#3DC3E2" d="M109,33.1c0,3.6-2.7,7-6.6,7c-3.8,0-6.6-3.3-6.6-7c0-3.6,2.7-6.9,6.6-6.9
		C106.2,26.2,109,29.5,109,33.1z"/>
	<path id="XMLID_3324_" fill="#F5C738" d="M115.4,26.4c0.7,0,1.2,0.6,1.2,1.2c0,0.7-0.5,1.2-1.2,1.2h-2v9.9c0,0.6-0.5,1.2-1.3,1.2
		c-0.7,0-1.2-0.6-1.2-1.2v-9.9h-1.9c-0.7,0-1.3-0.5-1.3-1.2c0-0.6,0.5-1.2,1.3-1.2h1.9v-3.1c0-0.7,0.5-1.2,1.2-1.2
		c0.7,0,1.3,0.5,1.3,1.2v3.1H115.4z"/>
	<polygon id="XMLID_3323_" opacity="0.5" fill="#2A1F50" points="95.3,6 98.2,3.9 97.1,3.5 97.7,2.1 95.6,3.6 96.3,3.9 	"/>
	<polygon id="XMLID_3322_" opacity="0.5" fill="#2A1F50" points="94.2,4.7 95.4,1.7 94.5,1.8 94.1,0.2 93.3,2.7 94.1,2.5 	"/>
	<g id="XMLID_3316_" opacity="0.5">
		<path id="XMLID_3317_" fill="#3DC3E2" d="M108.2,22.8c-5.6,1-11.1,1.9-16.7,2.9c-1.5-2.9-1.5-6.6,0.3-9.4c0.8-1.2,1.9-2.2,2.7-3.3
			c0.6-0.8,1-1.7,1.4-2.5c0.1-0.2,0.2-0.5,0.3-0.7c0.1-0.5-0.2-1-0.5-1.4c-0.2-0.5-0.3-1.1,0-1.4c0.3-0.3,0.9-0.3,1.2,0
			c0.4,0.3,0.5,0.7,0.5,1.2c0,0.6-0.3,1.3,0.1,1.7c0.2,0.2,0.6,0.3,0.9,0.4c0.5,0.2,0.9,0.7,1.4,1c0.8,0.6,1.8,0.9,2.8,1.4
			c2,0.9,3.6,2.5,4.6,4.4c0.8,1.5,1.2,3.1,1.2,4.7 M101.4,16.6c-0.9,0-1.6,1-1.6,2.1c0,1.2,0.7,2.1,1.6,2.1s1.6-1,1.6-2.1
			C103,17.6,102.3,16.6,101.4,16.6z M96.2,18.1c-0.7,0-1.3,0.8-1.3,1.7c0,0.9,0.6,1.7,1.3,1.7c0.7,0,1.3-0.8,1.3-1.7
			C97.5,18.9,96.9,18.1,96.2,18.1z"/>
	</g>
	<path id="XMLID_3311_" fill="#F5C738" d="M106.6,21.2c0,0.5,0,1.1-0.1,1.6l0,0.3l-15.9,2.7l-0.1-0.3c-0.6-1.3-1-2.8-1-4.4
		c0-3.6,1.9-6.8,4.6-8.4l0,0c-0.2,0,0-1.7,1.1-2.5l-0.3-1.7c-0.2-0.1-0.4-0.4-0.5-0.6c-0.1-0.5,0.2-1,0.8-1.1c0.5-0.1,1,0.2,1.1,0.8
		c0.1,0.3,0,0.6-0.2,0.8l0.3,1.7c1,0.1,2.1,0.8,2.3,1.7C103.1,12.1,106.6,16.2,106.6,21.2z M99.9,16.4c-0.9,0-1.6,0.9-1.6,2
		c0,1.1,0.7,2,1.6,2c0.9,0,1.6-0.9,1.6-2C101.5,17.3,100.8,16.4,99.9,16.4z M95,17.8c-0.7,0-1.2,0.7-1.2,1.6c0,0.9,0.5,1.6,1.2,1.6
		c0.7,0,1.2-0.7,1.2-1.6C96.2,18.5,95.7,17.8,95,17.8z"/>
	<g id="XMLID_3309_">
		<path id="XMLID_3310_" fill="#FFFFFF" d="M106.8,23l0-0.3c0.1-0.5,0.1-1.1,0.1-1.6c0-5-3.5-9.1-7.9-9.5c-0.2-0.9-1.4-1.6-2.3-1.7
			l-0.3-1.7c0.2-0.2,0.3-0.5,0.2-0.8c-0.1-0.5-0.5-0.8-1-0.8c0.4,0,0.8,0.3,0.8,0.8c0.1,0.3,0,0.6-0.2,0.8l0.3,1.7
			c1,0.1,2.1,0.8,2.3,1.7c4.4,0.4,7.9,4.5,7.9,9.5c0,0.5,0,1.1-0.1,1.6l0,0.3"/>
	</g>
	<polygon id="XMLID_3308_" fill="#F5C738" points="95.3,6 97.6,4.1 96.8,3.8 97.6,2 95.3,3.9 96.1,4.2 	"/>
	<polygon id="XMLID_3307_" fill="#FFFFFF" points="97.1,3.6 97.9,1.8 97.8,1.9 97.1,3.7 97.8,3.9 95.7,5.7 95.6,5.8 97.9,3.9 	"/>
	<polygon id="XMLID_3306_" fill="#F5C738" points="94.2,4.7 95.1,1.9 94.3,2.1 94,0.1 93.1,2.9 93.9,2.8 	"/>
	<polygon id="XMLID_3305_" fill="#FFFFFF" points="94.6,2 94.3,0 94.2,0.2 94.6,2 95.4,1.9 94.5,4.5 94.5,4.6 95.4,1.8 	"/>
	<g id="XMLID_3298_">
		<g id="XMLID_3302_">
			<ellipse id="XMLID_3304_" fill-rule="evenodd" clip-rule="evenodd" fill="#F89A3B" cx="95" cy="19.5" rx="0.6" ry="0.7"/>
			<ellipse id="XMLID_3303_" fill-rule="evenodd" clip-rule="evenodd" fill="#F5C738" cx="95" cy="19.4" rx="0.4" ry="0.5"/>
		</g>
		<g id="XMLID_3299_">
			<circle id="XMLID_3301_" fill-rule="evenodd" clip-rule="evenodd" fill="#FFFFFF" cx="95.1" cy="19" r="0.1"/>
			<circle id="XMLID_3300_" fill-rule="evenodd" clip-rule="evenodd" fill="#FFFFFF" cx="95.2" cy="19.3" r="0"/>
		</g>
	</g>
	<g id="XMLID_3291_">
		<g id="XMLID_3295_">
			<ellipse id="XMLID_3297_" fill-rule="evenodd" clip-rule="evenodd" fill="#F89A3B" cx="99.8" cy="18.4" rx="0.8" ry="0.9"/>
			<ellipse id="XMLID_3296_" fill-rule="evenodd" clip-rule="evenodd" fill="#F5C738" cx="99.9" cy="18.3" rx="0.6" ry="0.7"/>
		</g>
		<g id="XMLID_3292_">
			<circle id="XMLID_3294_" fill-rule="evenodd" clip-rule="evenodd" fill="#FFFFFF" cx="99.9" cy="17.8" r="0.2"/>
			<circle id="XMLID_3293_" fill-rule="evenodd" clip-rule="evenodd" fill="#FFFFFF" cx="99.8" cy="18.1" r="0"/>
		</g>
	</g>
	<polygon id="XMLID_3290_" opacity="0.5" fill="#2A1F50" points="92.2,4.8 94.1,5.6 92.1,3.3 91.8,4.1 90,3.4 91.9,5.6 	"/>
	<g id="XMLID_3287_">
		<polygon id="XMLID_3289_" fill="#F5C738" points="92.2,5.1 94.1,5.8 92.1,3.6 91.8,4.3 90,3.6 91.9,5.8 		"/>
		<polygon id="XMLID_3288_" fill="#FFFFFF" points="92.2,4.3 92.4,3.6 94.2,5.6 94.4,5.7 92.4,3.4 92.1,4.2 90.3,3.5 90.5,3.7 		"/>
	</g>
	<path id="XMLID_3285_" fill="#F5C738" d="M107.5,33.1c0,3.6-2.7,7-6.6,7c-3.8,0-6.6-3.3-6.6-7c0-3.6,2.7-6.9,6.6-6.9
		C104.8,26.2,107.5,29.5,107.5,33.1z"/>
</g>
</svg>
